<?xml version="1.0" encoding="utf-8"?><svg width="1200" height="1060" viewBox="0 0 1200 1060" xmlns="http://www.w3.org/2000/svg" xmlns:xlink="http://www.w3.org/1999/xlink"><view id="background_1" viewBox="0 0 600 530"/><svg viewBox="0 0 600 530" width="600" height="530"><path fill="#CAA25C" d="M606.8 534H437.7V166.1l169.1-38.2"/><path fill="#43A2B1" d="M-6 490.7c42 0 78.8-4 111.4-4 32.6 0 59.3 4 92.6 4 42 0 78.8-4 111.4-4 32.6 0 59.3 4 92.6 4 42 0 78.8-4 111.4-4 32.6 0 59.3 4 92.6 4v44.1H-6v-44.1z"/><path fill="#C29D59" d="M606.8 216.4l-169.1-50.3 169.1-38.2"/></svg><view id="background_2" viewBox="600 0 600 530"/><svg viewBox="0 0 600 530" width="600" height="530" x="600"><path fill="#CAA25C" d="M606.8 534H437.7V166.1l169.1-38.2"/><path fill="#45AF63" d="M-6 490.7c42 0 78.8-4 111.4-4s59.3 4 92.6 4c42 0 78.8-4 111.4-4s59.3 4 92.6 4c42 0 78.8-4 111.4-4 32.6 0 59.3 4 92.6 4v44.1H-6v-44.1z"/><path fill="#C29D59" d="M606.8 216.4l-169.1-50.3 169.1-38.2"/></svg><view id="background_3" viewBox="0 530 600 530"/><svg viewBox="0 0 600 530" width="600" height="530" y="530"><path fill="#CAA25C" d="M606.8 534H437.7V166.1l169.1-38.2"/><path fill="#8045AD" d="M-6 490.7c42 0 78.8-4 111.4-4s59.3 4 92.6 4c42 0 78.8-4 111.4-4s59.3 4 92.6 4c42 0 78.8-4 111.4-4 32.6 0 59.3 4 92.6 4v44.1H-6v-44.1z"/><path fill="#C29D59" d="M606.8 216.4l-169.1-50.3 169.1-38.2"/></svg></svg>