<?xml version="1.0" encoding="utf-8"?>
<!-- Generator: Adobe Illustrator 18.0.0, SVG Export Plug-In . SVG Version: 6.00 Build 0)  -->
<!DOCTYPE svg PUBLIC "-//W3C//DTD SVG 1.1//EN" "http://www.w3.org/Graphics/SVG/1.1/DTD/svg11.dtd">
<svg version="1.1" id="Layer_1" xmlns="http://www.w3.org/2000/svg" xmlns:xlink="http://www.w3.org/1999/xlink" x="0px" y="0px"
	 viewBox="0 0 100 100" enable-background="new 0 0 100 100" xml:space="preserve">
<g>
	<path fill="#231F20" d="M96.3,21.5c-2.6,3.9-5.8,7.2-9.5,9.9V34c0,5.1-0.7,10.2-2.2,15.3c-1.5,5.1-3.7,10-6.8,14.7
		c-3.1,4.7-6.7,8.9-11,12.5c-4.2,3.6-9.3,6.5-15.3,8.6c-5.9,2.2-12.3,3.2-19.2,3.2C20.8,88.4,11,85.8,3,80.6C4.5,80.8,6,81,7.5,81
		c8.3,0,16.2-3,23.8-9.1c-4.1-0.1-7.8-1.4-11.1-3.8c-3.3-2.5-5.5-5.6-6.8-9.5c1.2,0.2,2.4,0.3,3.6,0.3c1.7,0,3.4-0.2,5.1-0.6
		c-4.4-0.9-8-3.1-11-6.6c-2.9-3.5-4.4-7.6-4.4-12.2v-0.2c2.7,1.5,5.6,2.3,8.6,2.4c-5.7-3.8-8.5-9.1-8.5-15.9c0-3.2,0.9-6.3,2.6-9.3
		c4.8,5.8,10.6,10.5,17.4,13.9c6.8,3.4,14.1,5.3,22,5.8c-0.3-1.2-0.4-2.7-0.4-4.4c0-5.3,1.9-9.8,5.6-13.5c3.7-3.7,8.2-5.6,13.6-5.6
		c5.5,0,10.2,2,14.1,6c4.2-0.9,8.3-2.4,12.1-4.6c-1.4,4.6-4.3,8.1-8.4,10.6C89,24.1,92.6,23.1,96.3,21.5z"/>
</g>
</svg>
