<svg xmlns="http://www.w3.org/2000/svg" viewBox="0 0 100 100"><path fill="#231F20" d="M96.3 21.5c-2.6 3.9-5.8 7.2-9.5 9.9V34c0 5.1-.7 10.2-2.2 15.3-1.5 5.1-3.7 10-6.8 14.7-3.1 4.7-6.7 8.9-11 12.5-4.2 3.6-9.3 6.5-15.3 8.6-5.9 2.2-12.3 3.2-19.2 3.2-11.5.1-21.3-2.5-29.3-7.7 1.5.2 3 .4 4.5.4 8.3 0 16.2-3 23.8-9.1-4.1-.1-7.8-1.4-11.1-3.8-3.3-2.5-5.5-5.6-6.8-9.5 1.2.2 2.4.3 3.6.3 1.7 0 3.4-.2 5.1-.6-4.4-.9-8-3.1-11-6.6-2.9-3.5-4.4-7.6-4.4-12.2v-.2c2.7 1.5 5.6 2.3 8.6 2.4-5.7-3.8-8.5-9.1-8.5-15.9 0-3.2.9-6.3 2.6-9.3C14.2 22.3 20 27 26.8 30.4c6.8 3.4 14.1 5.3 22 5.8-.3-1.2-.4-2.7-.4-4.4 0-5.3 1.9-9.8 5.6-13.5 3.7-3.7 8.2-5.6 13.6-5.6 5.5 0 10.2 2 14.1 6 4.2-.9 8.3-2.4 12.1-4.6-1.4 4.6-4.3 8.1-8.4 10.6 3.6-.6 7.2-1.6 10.9-3.2z"/></svg>